<svg xmlns="http://www.w3.org/2000/svg" width="226" height="35.088" viewBox="0 0 226 35.088">
  <g id="Grupo_120" data-name="Grupo 120" transform="translate(-1073 -1105.666)">
    <path id="shapes-and-symbols" d="M36.518,13.751a1.942,1.942,0,0,0-1.675-1.338l-10.568-.96L20.1,1.672a1.946,1.946,0,0,0-3.579,0l-4.179,9.779-10.569.96a1.948,1.948,0,0,0-1.1,3.405l7.988,7.005L6.3,33.2a1.943,1.943,0,0,0,2.894,2.1l9.116-5.448L27.419,35.3a1.946,1.946,0,0,0,2.9-2.1L27.959,22.823l7.988-7a1.947,1.947,0,0,0,.571-2.069Zm0,0" transform="translate(1073 1105.175)" fill="#fd7e40"/>
    <path id="shapes-and-symbols-2" data-name="shapes-and-symbols" d="M36.518,13.751a1.942,1.942,0,0,0-1.675-1.338l-10.568-.96L20.1,1.672a1.946,1.946,0,0,0-3.579,0l-4.179,9.779-10.569.96a1.948,1.948,0,0,0-1.1,3.405l7.988,7.005L6.3,33.2a1.943,1.943,0,0,0,2.894,2.1l9.116-5.448L27.419,35.3a1.946,1.946,0,0,0,2.9-2.1L27.959,22.823l7.988-7a1.947,1.947,0,0,0,.571-2.069Zm0,0" transform="translate(1120.347 1105.175)" fill="#fd7e40"/>
    <path id="shapes-and-symbols-3" data-name="shapes-and-symbols" d="M36.518,13.751a1.942,1.942,0,0,0-1.675-1.338l-10.568-.96L20.1,1.672a1.946,1.946,0,0,0-3.579,0l-4.179,9.779-10.569.96a1.948,1.948,0,0,0-1.1,3.405l7.988,7.005L6.3,33.2a1.943,1.943,0,0,0,2.894,2.1l9.116-5.448L27.419,35.3a1.946,1.946,0,0,0,2.9-2.1L27.959,22.823l7.988-7a1.947,1.947,0,0,0,.571-2.069Zm0,0" transform="translate(1167.693 1105.175)" fill="#fd7e40"/>
    <path id="shapes-and-symbols-4" data-name="shapes-and-symbols" d="M36.518,13.751a1.942,1.942,0,0,0-1.675-1.338l-10.568-.96L20.1,1.672a1.946,1.946,0,0,0-3.579,0l-4.179,9.779-10.569.96a1.948,1.948,0,0,0-1.1,3.405l7.988,7.005L6.3,33.2a1.943,1.943,0,0,0,2.894,2.1l9.116-5.448L27.419,35.3a1.946,1.946,0,0,0,2.9-2.1L27.959,22.823l7.988-7a1.947,1.947,0,0,0,.571-2.069Zm0,0" transform="translate(1215.04 1105.175)" fill="#fd7e40"/>
    <path id="shapes-and-symbols-5" data-name="shapes-and-symbols" d="M36.518,13.751a1.942,1.942,0,0,0-1.675-1.338l-10.568-.96L20.1,1.672a1.946,1.946,0,0,0-3.579,0l-4.179,9.779-10.569.96a1.948,1.948,0,0,0-1.1,3.405l7.988,7.005L6.3,33.2a1.943,1.943,0,0,0,2.894,2.1l9.116-5.448L27.419,35.3a1.946,1.946,0,0,0,2.9-2.1L27.959,22.823l7.988-7a1.947,1.947,0,0,0,.571-2.069Zm0,0" transform="translate(1262.387 1105.175)" fill="#8ed2d1" opacity="0.5"/>
  </g>
</svg>
