<svg xmlns="http://www.w3.org/2000/svg" width="75.609" height="68.434" viewBox="0 0 75.609 68.434">
  <g id="Grupo_74" data-name="Grupo 74" transform="translate(-1057 -1108)">
    <circle id="Elipse_24" data-name="Elipse 24" cx="31.5" cy="31.5" r="31.5" transform="translate(1057 1108)" fill="#8ed2d1" opacity="0.5"/>
    <g id="speech-bubble" transform="translate(1076 1095.726)">
      <path id="Caminho_170" data-name="Caminho 170" d="M51.633,44.221H48.159a21.569,21.569,0,0,0-39.768,0H4.975A4.981,4.981,0,0,0,0,49.2V55.83a4.981,4.981,0,0,0,4.975,4.975h6.811l-.713-2.175A18.268,18.268,0,1,1,45.512,46.425l.014.037a14.366,14.366,0,0,1,.777,3.029,18.255,18.255,0,0,1-.818,9.091l-.007.02A18.207,18.207,0,0,1,28.337,70.757a4.975,4.975,0,1,0,4.943,4.975V73.5a21.532,21.532,0,0,0,14.858-12.69h3.5a4.981,4.981,0,0,0,4.975-4.975V49.2A4.981,4.981,0,0,0,51.633,44.221Z" fill="#fff"/>
      <path id="Caminho_171" data-name="Caminho 171" d="M121,117.6v3.317h14.926a14.924,14.924,0,1,0-11.739-5.706A3.3,3.3,0,0,1,121,117.6Zm19.9-13.268h3.317v3.317H140.9Zm-6.634,0h3.317v3.317h-3.317Zm-6.634,0h3.317v3.317h-3.317Z" transform="translate(-107.622 -53.473)" fill="#fff"/>
    </g>
  </g>
</svg>
