<svg xmlns="http://www.w3.org/2000/svg" width="78" height="72" viewBox="0 0 78 72">
  <g id="Grupo_73" data-name="Grupo 73" transform="translate(-271 -1108)">
    <circle id="Elipse_23" data-name="Elipse 23" cx="31.5" cy="31.5" r="31.5" transform="translate(271 1108)" fill="#8ed2d1" opacity="0.5"/>
    <g id="interface_2_" data-name="interface (2)" transform="translate(296 1127)">
      <path id="Caminho_164" data-name="Caminho 164" d="M65.656,243.5h5.521a1.657,1.657,0,0,0,1.656-1.656v-5.521a1.657,1.657,0,0,0-1.656-1.656H65.656A1.657,1.657,0,0,0,64,236.324v5.521A1.657,1.657,0,0,0,65.656,243.5Zm0,0" transform="translate(-57.375 -210.376)" fill="#fff"/>
      <path id="Caminho_165" data-name="Caminho 165" d="M65.656,371.5h5.521a1.657,1.657,0,0,0,1.656-1.656v-5.521a1.657,1.657,0,0,0-1.656-1.656H65.656A1.657,1.657,0,0,0,64,364.324v5.521A1.657,1.657,0,0,0,65.656,371.5Zm0,0" transform="translate(-57.375 -325.126)" fill="#fff"/>
      <path id="Caminho_166" data-name="Caminho 166" d="M214.988,243.5h5.521a1.657,1.657,0,0,0,1.656-1.656v-5.521a1.657,1.657,0,0,0-1.656-1.656h-5.521a1.657,1.657,0,0,0-1.656,1.656v5.521A1.657,1.657,0,0,0,214.988,243.5Zm0,0" transform="translate(-191.249 -210.376)" fill="#fff"/>
      <path id="Caminho_167" data-name="Caminho 167" d="M214.988,371.5h5.521a1.657,1.657,0,0,0,1.656-1.656v-5.521a1.657,1.657,0,0,0-1.656-1.656h-5.521a1.657,1.657,0,0,0-1.656,1.656v5.521A1.657,1.657,0,0,0,214.988,371.5Zm0,0" transform="translate(-191.249 -325.126)" fill="#fff"/>
      <path id="Caminho_168" data-name="Caminho 168" d="M364.324,243.5h5.521a1.657,1.657,0,0,0,1.656-1.656v-5.521a1.657,1.657,0,0,0-1.656-1.656h-5.521a1.657,1.657,0,0,0-1.656,1.656v5.521A1.657,1.657,0,0,0,364.324,243.5Zm0,0" transform="translate(-325.126 -210.376)" fill="#fff"/>
      <path id="Caminho_169" data-name="Caminho 169" d="M46.375,6.625H44.167V2.208A2.209,2.209,0,0,0,41.958,0H39.75a2.209,2.209,0,0,0-2.208,2.208V6.625H15.458V2.208A2.209,2.209,0,0,0,13.25,0H11.042A2.209,2.209,0,0,0,8.833,2.208V6.625H6.625A6.633,6.633,0,0,0,0,13.25V46.375A6.633,6.633,0,0,0,6.625,53h39.75A6.633,6.633,0,0,0,53,46.375V13.25a6.633,6.633,0,0,0-6.625-6.625Zm2.208,39.75a2.212,2.212,0,0,1-2.208,2.208H6.625a2.212,2.212,0,0,1-2.208-2.208v-24.2H48.583Zm0,0" fill="#fff"/>
    </g>
  </g>
</svg>
