<svg xmlns="http://www.w3.org/2000/svg" width="667.658" height="462.518" viewBox="0 0 667.658 462.518">
    <defs>
        <style>
            .prefix__cls-2{fill:#e8e1d0}.prefix__cls-3{fill:#cecece}.prefix__cls-4{fill:#b5e576}.prefix__cls-5{fill:#fbd676}.prefix__cls-6{fill:#ea94b7}.prefix__cls-7{fill:#ddafe8}.prefix__cls-8{fill:#91acc6}
        </style>
    </defs>
    <g id="prefix__Object" transform="translate(-27.298 -23.318)">
        <g id="prefix__Grupo_36" data-name="Grupo 36" transform="translate(28.1 23.9)">
            <path id="prefix__Caminho_86" d="M28.1 212.846l219.251 272.337L694.1 216.144 466.4 23.9z" data-name="Caminho 86" transform="translate(-28.1 -23.9)" style="fill:#fff;stroke:#a0a0a0;stroke-miterlimit:10"/>
            <path id="prefix__Caminho_87" d="M84.8 190.929l79.269-34.429L389.2 388.327l-86.484 51.025z" class="prefix__cls-2" data-name="Caminho 87" transform="translate(-26.354 -19.816)"/>
            <path id="prefix__Caminho_88" d="M212.5 330.129l-49.375 28.553-50.925-64.218 45.664-25.564z" class="prefix__cls-2" data-name="Caminho 88" transform="translate(-25.51 -16.354)"/>
            <path id="prefix__Caminho_89" d="M541.669 169.816L293.143 298.047l-58.343-60.4L479.2 112.4z" class="prefix__cls-2" data-name="Caminho 89" transform="translate(-21.734 -21.174)"/>
            <path id="prefix__Caminho_90" d="M168.5 154.575L279.517 105.2l68.342 67.208-108.234 55.56z" class="prefix__cls-3" data-name="Caminho 90" transform="translate(-23.776 -21.396)"/>
            <path id="prefix__Caminho_91" d="M282.4 104.726l68.239 65.662 122.047-60.714L407.024 50.3z" class="prefix__cls-3" data-name="Caminho 91" transform="translate(-20.268 -23.087)"/>
            <path id="prefix__Caminho_92" d="M387.664 380.877l112.976-68.136-77.723-78.341L305.2 294.908z" class="prefix__cls-3" data-name="Caminho 92" transform="translate(-19.565 -17.417)"/>
            <path id="prefix__Caminho_93" d="M427.2 232.693L541.31 172.7l76.485 70.094-112.976 68.342z" class="prefix__cls-3" data-name="Caminho 93" transform="translate(-15.808 -19.317)"/>
            <path id="prefix__Caminho_94" d="M38 210.736L80.675 192.8l65.559 78.444-41.644 21.75z" class="prefix__cls-4" data-name="Caminho 94" transform="translate(-27.795 -18.698)"/>
            <path id="prefix__Caminho_95" d="M163.3 363.555l44.015-25.255 85.659 100.194-47.932 27.832z" class="prefix__cls-4" data-name="Caminho 95" transform="translate(-23.936 -14.216)"/>
            <path id="prefix__Caminho_96" d="M408.7 48.894L454.158 29l218.014 186.369-47.314 28.347z" class="prefix__cls-4" data-name="Caminho 96" transform="translate(-16.377 -23.743)"/>
            <path id="prefix__Caminho_97" d="M309.753 198.49l-22.471 11.236-12.782-16.287 21.647-11.339z" class="prefix__cls-2" data-name="Caminho 97" transform="translate(-20.511 -19.027)"/>
            <path id="prefix__Caminho_98" d="M425.781 140.621l-22.059 11.854-14.122-17.936 21.647-11.339z" class="prefix__cls-2" data-name="Caminho 98" transform="translate(-16.966 -20.842)"/>
            <path id="prefix__Caminho_99" d="M383.666 266.1l-20.719 11.03L348 260.942l21.853-11.442z" class="prefix__cls-2" data-name="Caminho 99" transform="translate(-18.247 -16.951)"/>
            <path id="prefix__Caminho_100" d="M501.19 203.78l-20.719 12.267-15.771-17.73 22.265-10.617z" class="prefix__cls-2" data-name="Caminho 100" transform="translate(-14.653 -18.855)"/>
            <path id="prefix__Caminho_101" d="M247 123.585l28.347-12.885 21.441 20.2z" class="prefix__cls-5" data-name="Caminho 101" transform="translate(-21.358 -21.227)"/>
            <path id="prefix__Caminho_102" d="M371.6 71.028L403.246 56.7l21.441 20.2z" class="prefix__cls-5" data-name="Caminho 102" transform="translate(-17.52 -22.89)"/>
            <path id="prefix__Caminho_103" d="M177.5 155.056l51.025-21.956 20.616 18.761-51.231 24.12z" class="prefix__cls-6" data-name="Caminho 103" transform="translate(-23.498 -20.537)"/>
            <path id="prefix__Caminho_104" d="M289.2 104.556L340.122 82.6l20.616 18.761-49.891 22.265z" class="prefix__cls-6" data-name="Caminho 104" transform="translate(-20.058 -22.092)"/>
            <path id="prefix__Caminho_105" d="M201.4 179.075l48.654-22.575 24.739 25.564-11.648 6.906 10.617 12.988-33.295 17.421z" class="prefix__cls-7" data-name="Caminho 105" transform="translate(-22.762 -19.816)"/>
            <path id="prefix__Caminho_106" d="M274.5 148.726l34.119 33.5 25.152-12.576-31.336-31.85z" class="prefix__cls-8" data-name="Caminho 106" transform="translate(-20.511 -20.392)"/>
            <path id="prefix__Caminho_107" d="M315 126.221l39.583-17.421 34.635 34.532-38.037 18.142z" class="prefix__cls-7" data-name="Caminho 107" transform="translate(-19.263 -21.285)"/>
            <path id="prefix__Caminho_108" d="M423.765 125.643l36.49-17.833-23.089-20.41-35.666 15.359" class="prefix__cls-8" data-name="Caminho 108" transform="translate(-16.599 -21.944)"/>
            <path id="prefix__Caminho_109" d="M466.371 288.7L464 323.335l21.441-12.679z" class="prefix__cls-5" data-name="Caminho 109" transform="translate(-14.674 -15.744)"/>
            <path id="prefix__Caminho_110" d="M352.167 274.8L313.1 294.282l47.829 47.726 35.15-21.544z" class="prefix__cls-7" data-name="Caminho 110" transform="translate(-19.322 -16.172)"/>
            <path id="prefix__Caminho_111" d="M386.5 256.624l32.883-17.524 42.881 45.046-33.81 18.245z" class="prefix__cls-6" data-name="Caminho 111" transform="translate(-17.061 -17.272)"/>
            <path id="prefix__Caminho_112" d="M361.6 343.431l35.563-21.131 24.43 26.079-36.078 20.821z" class="prefix__cls-8" data-name="Caminho 112" transform="translate(-17.828 -14.709)"/>
            <path id="prefix__Caminho_113" d="M478.6 275.8l61.539 4.02-36.078 21.234z" class="prefix__cls-5" data-name="Caminho 113" transform="translate(-14.225 -16.141)"/>
            <path id="prefix__Caminho_114" d="M435.1 231.857l34.532 35.872 34.738-19.173-33.707-35.356z" class="prefix__cls-6" data-name="Caminho 114" transform="translate(-15.564 -18.07)"/>
            <path id="prefix__Caminho_115" d="M502.6 196.639l34.944-18.039 39.583 34.429-35.047 19.585z" class="prefix__cls-7" data-name="Caminho 115" transform="translate(-13.485 -19.135)"/>
            <path id="prefix__Caminho_116" d="M545.8 234.939l33.192-18.039 26.079 23.605-32.161 19.379z" class="prefix__cls-8" data-name="Caminho 116" transform="translate(-12.155 -17.956)"/>
            <path id="prefix__Caminho_117" d="M143 173.6l19.482-10 29.069 31.13-19.482 10.2z" class="prefix__cls-5" data-name="Caminho 117" transform="translate(-24.561 -19.597)"/>
            <path id="prefix__Caminho_118" d="M93.2 192.568l20.513-8.968 29.687 31.852-20.822 10.72z" class="prefix__cls-5" data-name="Caminho 118" transform="translate(-26.095 -18.981)"/>
            <path id="prefix__Caminho_119" d="M125 227.493l19.791-9.793 29.584 31.749-20.719 10.823z" class="prefix__cls-5" data-name="Caminho 119" transform="translate(-25.115 -17.931)"/>
            <path id="prefix__Caminho_120" d="M217.1 332.537l15.462-7.937 21.131 22.781-16.493 8.968z" class="prefix__cls-5" data-name="Caminho 120" transform="translate(-22.279 -14.638)"/>
            <path id="prefix__Caminho_121" d="M274.5 302.034l15.565-7.834 21.135 22.884-15.977 8.453z" class="prefix__cls-5" data-name="Caminho 121" transform="translate(-20.511 -15.575)"/>
            <path id="prefix__Caminho_122" d="M174.1 206.2l19.173-9.9 30.821 31.646-19.482 10.514z" class="prefix__cls-5" data-name="Caminho 122" transform="translate(-23.603 -18.59)"/>
            <path id="prefix__Caminho_123" d="M266.5 390.269l32.161 35.769 76.382-44.427-33.707-33.811z" data-name="Caminho 123" transform="translate(-20.757 -13.924)" style="fill:#9b9b9b"/>
        </g>
    </g>
</svg>
