<svg xmlns="http://www.w3.org/2000/svg" width="108" height="116.916" viewBox="0 0 108 116.916">
  <g id="Grupo_72" data-name="Grupo 72" transform="translate(-906 -194)">
    <circle id="Elipse_22" data-name="Elipse 22" cx="54" cy="54" r="54" transform="translate(906 194)" fill="#ffbe7b" opacity="0.5"/>
    <g id="electronics" transform="translate(923.988 233.579)">
      <path id="Caminho_129" data-name="Caminho 129" d="M160.012,376h18.667v1.333H160.012Zm0,0" transform="translate(-133.334 -313.333)" fill="#f24a33"/>
      <path id="Caminho_130" data-name="Caminho 130" d="M180.151,424h-17.8a9.134,9.134,0,0,0,.513,1.333h16.764a9.989,9.989,0,0,0,.525-1.333Zm0,0" transform="translate(-135.28 -353.333)" fill="#f24a33"/>
      <path id="Caminho_131" data-name="Caminho 131" d="M184.017,450.647a9.068,9.068,0,0,0,5.8-2.647H176.874c.048.047.089.1.133.143a9.242,9.242,0,0,0,7.009,2.5Zm0,0" transform="translate(-147.386 -373.333)" fill="#f24a33"/>
      <path id="Caminho_132" data-name="Caminho 132" d="M178.679,400H160.012v1.333h18.649c.005-.121.018-1.333.018-1.333Zm0,0" transform="translate(-133.334 -333.333)" fill="#f24a33"/>
      <path id="Caminho_133" data-name="Caminho 133" d="M118.675,125.644A9.391,9.391,0,0,1,122.4,118.2,21.333,21.333,0,0,0,111.85,80.135a22.707,22.707,0,0,0-2.533-.144,21.087,21.087,0,0,0-14.178,5.415,21.334,21.334,0,0,0,1.119,32.77,9.449,9.449,0,0,1,3.751,7.473v1.01h18.667Zm-7.276-40.2a1.485,1.485,0,0,1-.152-.008,16.631,16.631,0,0,0-1.9-.109,1.333,1.333,0,0,1,0-2.667,19.539,19.539,0,0,1,2.206.133,1.333,1.333,0,0,1-.149,2.657Zm3.341-.656a1.333,1.333,0,0,1,1.743-.72,18.634,18.634,0,0,1,11.384,14.92,1.334,1.334,0,0,1-2.648.317,15.96,15.96,0,0,0-9.758-12.779,1.333,1.333,0,0,1-.72-1.733Zm0,0" transform="translate(-73.33 -66.659)" fill="#f24a33"/>
      <path id="Caminho_134" data-name="Caminho 134" d="M209.345,8a1.333,1.333,0,0,0,1.333-1.333V1.333a1.333,1.333,0,1,0-2.667,0V6.667A1.333,1.333,0,0,0,209.345,8Zm0,0" transform="translate(-173.334)" fill="#f24a33"/>
      <path id="Caminho_135" data-name="Caminho 135" d="M106.877,34.519a1.333,1.333,0,1,0,2.309-1.333l-2.667-4.618a1.333,1.333,0,0,0-2.309,1.333Zm0,0" transform="translate(-86.687 -23.256)" fill="#f24a33"/>
      <path id="Caminho_136" data-name="Caminho 136" d="M34.53,106.865,29.912,104.2a1.334,1.334,0,0,0-1.333,2.31l4.618,2.667a1.334,1.334,0,0,0,1.333-2.31Zm0,0" transform="translate(-23.256 -86.687)" fill="#f24a33"/>
      <path id="Caminho_137" data-name="Caminho 137" d="M8.012,209.333A1.333,1.333,0,0,0,6.678,208H1.345a1.333,1.333,0,1,0,0,2.667H6.678A1.333,1.333,0,0,0,8.012,209.333Zm0,0" transform="translate(0 -173.333)" fill="#f24a33"/>
      <path id="Caminho_138" data-name="Caminho 138" d="M33.121,296.156,28.5,298.822a1.334,1.334,0,1,0,1.333,2.31l4.618-2.667a1.334,1.334,0,1,0-1.333-2.31Zm0,0" transform="translate(-23.18 -246.644)" fill="#f24a33"/>
      <path id="Caminho_139" data-name="Caminho 139" d="M367.014,298.822l-4.619-2.667a1.334,1.334,0,1,0-1.333,2.31l4.618,2.667a1.334,1.334,0,0,0,1.333-2.31Zm0,0" transform="translate(-300.313 -246.644)" fill="#f24a33"/>
      <path id="Caminho_140" data-name="Caminho 140" d="M390.679,208h-5.333a1.333,1.333,0,0,0,0,2.667h5.333a1.333,1.333,0,1,0,0-2.667Zm0,0" transform="translate(-320 -173.333)" fill="#f24a33"/>
      <path id="Caminho_141" data-name="Caminho 141" d="M361.774,109.354a1.336,1.336,0,0,0,.667-.178l4.619-2.667a1.334,1.334,0,0,0-1.333-2.31l-4.619,2.667a1.334,1.334,0,0,0,.667,2.488Zm0,0" transform="translate(-300.358 -86.687)" fill="#f24a33"/>
      <path id="Caminho_142" data-name="Caminho 142" d="M296.677,35.007a1.332,1.332,0,0,0,1.821-.488l2.667-4.618a1.333,1.333,0,0,0-2.309-1.333l-2.667,4.618a1.334,1.334,0,0,0,.488,1.822Zm0,0" transform="translate(-246.665 -23.256)" fill="#f24a33"/>
    </g>
  </g>
</svg>
