<svg xmlns="http://www.w3.org/2000/svg" id="prefix__signs" width="38.874" height="38.873" viewBox="0 0 38.874 38.873">
    <defs>
        <style>
            .prefix__cls-1{fill:#fff}
        </style>
    </defs>
    <path id="prefix__Caminho_78" d="M24.3 21.06a1.619 1.619 0 0 0-1.62 1.62v6.479a1.621 1.621 0 0 1-1.62 1.62H16.2V6.483A3.265 3.265 0 0 0 13.991 3.4l-.48-.16h7.545a1.621 1.621 0 0 1 1.62 1.62v4.862a1.62 1.62 0 1 0 3.239 0V4.863A4.865 4.865 0 0 0 21.056 0H3.644a1.272 1.272 0 0 0-.173.036C3.393.033 3.319 0 3.24 0A3.243 3.243 0 0 0 0 3.243V32.4a3.265 3.265 0 0 0 2.206 3.079l9.748 3.249a3.353 3.353 0 0 0 1 .151 3.243 3.243 0 0 0 3.239-3.24v-1.62h4.859a4.865 4.865 0 0 0 4.859-4.859v-6.48a1.619 1.619 0 0 0-1.62-1.62zm0 0" class="prefix__cls-1" data-name="Caminho 78" transform="translate(0 -.004)"/>
    <path id="prefix__Caminho_79" d="M294.675 113.619l-6.479-6.479a1.619 1.619 0 0 0-2.765 1.145v4.859h-6.479a1.62 1.62 0 1 0 0 3.239h6.479v4.859a1.619 1.619 0 0 0 2.765 1.145l6.479-6.479a1.618 1.618 0 0 0 0-2.29zm0 0" class="prefix__cls-1" data-name="Caminho 79" transform="translate(-256.276 -98.567)"/>
</svg>
