<svg xmlns="http://www.w3.org/2000/svg" width="480" height="56" viewBox="0 0 480 56">
  <g id="Grupo_135" data-name="Grupo 135" transform="translate(-72 -963)">
    <path id="bg" d="M35.183,0H444.817C464.248,0,480,12.536,480,28s-15.752,28-35.183,28H35.183C15.752,56,0,43.464,0,28S15.752,0,35.183,0Z" transform="translate(72 963)" fill="#fff"/>
    <g id="Grupo_37" data-name="Grupo 37" transform="translate(-1 27)">
      <circle id="Elipse_4" data-name="Elipse 4" cx="10" cy="10" r="10" transform="translate(100 954)" stroke-width="2" stroke="#0aa1a7" stroke-linecap="round" stroke-linejoin="round" fill="none"/>
      <path id="Caminho_4" data-name="Caminho 4" d="M8,14a5.4,5.4,0,0,0,4,2,5.4,5.4,0,0,0,4-2" transform="translate(98 952)" fill="none" stroke="#0aa1a7" stroke-linecap="round" stroke-linejoin="round" stroke-width="2"/>
      <line id="Linha_5" data-name="Linha 5" x2="0.01" transform="translate(107.272 961)" fill="none" stroke="#0aa1a7" stroke-linecap="round" stroke-linejoin="round" stroke-width="2"/>
      <line id="Linha_6" data-name="Linha 6" x2="0.01" transform="translate(112.727 961)" fill="none" stroke="#0aa1a7" stroke-linecap="round" stroke-linejoin="round" stroke-width="2"/>
    </g>
    <text id="Digite_aqui..." data-name="Digite aqui..." transform="translate(131 996)" fill="#5a5a5a" font-size="16" font-family="Muli-Regular, Muli"><tspan x="0" y="0">Digite aqui...</tspan></text>
  </g>
</svg>
