<svg xmlns="http://www.w3.org/2000/svg" width="108" height="117.093" viewBox="0 0 108 117.093">
  <g id="Grupo_131" data-name="Grupo 131" transform="translate(-906 -194)">
    <circle id="Elipse_22" data-name="Elipse 22" cx="54" cy="54" r="54" transform="translate(906 194)" fill="#ffbe7b" opacity="0.5"/>
    <g id="social" transform="translate(901 247.378)">
      <g id="Grupo_128" data-name="Grupo 128" transform="translate(42.2)">
        <g id="Grupo_127" data-name="Grupo 127" transform="translate(0)">
          <path id="Caminho_380" data-name="Caminho 380" d="M137.8,0a16.8,16.8,0,1,0,16.8,16.8A16.819,16.819,0,0,0,137.8,0Z" transform="translate(-121)" fill="#f24a33"/>
        </g>
      </g>
      <g id="Grupo_130" data-name="Grupo 130" transform="translate(31 37.333)">
        <g id="Grupo_129" data-name="Grupo 129">
          <path id="Caminho_381" data-name="Caminho 381" d="M79.9,307.242A23.949,23.949,0,0,0,62.733,300H55.267A23.95,23.95,0,0,0,38.1,307.242,24.483,24.483,0,0,0,31,324.516a1.867,1.867,0,0,0,1.867,1.867H85.133A1.867,1.867,0,0,0,87,324.516,24.483,24.483,0,0,0,79.9,307.242Z" transform="translate(-31 -300)" fill="#f24a33"/>
        </g>
      </g>
    </g>
  </g>
</svg>
