<svg xmlns="http://www.w3.org/2000/svg" xmlns:xlink="http://www.w3.org/1999/xlink" width="753.932" height="663.273" viewBox="0 0 753.932 663.273">
  <defs>
    <filter id="Retângulo_89" x="0" y="0" width="753.932" height="663.273" filterUnits="userSpaceOnUse">
      <feOffset dx="2" dy="12" input="SourceAlpha"/>
      <feGaussianBlur stdDeviation="6" result="blur"/>
      <feFlood flood-opacity="0.059"/>
      <feComposite operator="in" in2="blur"/>
      <feComposite in="SourceGraphic"/>
    </filter>
  </defs>
  <g id="Grupo_136" data-name="Grupo 136" transform="translate(-1126.5 -397.5)">
    <g transform="matrix(1, 0, 0, 1, 1126.5, 397.5)" filter="url(#Retângulo_89)">
      <rect id="Retângulo_89-2" data-name="Retângulo 89" width="626.273" height="716.932" rx="6" transform="translate(16.5 632.77) rotate(-90)" fill="#fff" stroke="#ececec" stroke-width="1"/>
    </g>
    <rect id="Retângulo_90" data-name="Retângulo 90" width="64.273" height="716.932" rx="6" transform="translate(1143 1030.773) rotate(-90)" fill="#f9f9f9" stroke="#c9c9c9" stroke-width="1"/>
    <g id="Grupo_59" data-name="Grupo 59" transform="translate(1086 31)">
      <circle id="Elipse_4" data-name="Elipse 4" cx="13.5" cy="13.5" r="13.5" transform="translate(100 954)" stroke-width="2" stroke="#0aa1a7" stroke-linecap="round" stroke-linejoin="round" fill="none"/>
      <path id="Caminho_4" data-name="Caminho 4" d="M8,14a7.282,7.282,0,0,0,5.395,2.7A7.282,7.282,0,0,0,18.789,14" transform="translate(100.092 956.184)" fill="none" stroke="#0aa1a7" stroke-linecap="round" stroke-linejoin="round" stroke-width="2"/>
      <line id="Linha_5" data-name="Linha 5" x2="0.013" transform="translate(109.808 963.441)" fill="none" stroke="#0aa1a7" stroke-linecap="round" stroke-linejoin="round" stroke-width="2"/>
      <line id="Linha_6" data-name="Linha 6" x2="0.013" transform="translate(117.164 963.441)" fill="none" stroke="#0aa1a7" stroke-linecap="round" stroke-linejoin="round" stroke-width="2"/>
    </g>
    <text id="Digite_aqui..." data-name="Digite aqui..." transform="translate(1231 1005)" fill="#5a5a5a" font-size="16" font-family="Muli-Regular, Muli"><tspan x="0" y="0">Digite aqui...</tspan></text>
  </g>
</svg>
