<svg xmlns="http://www.w3.org/2000/svg" width="258.841" height="206.107" viewBox="0 0 258.841 206.107">
  <g id="Grupo_122" data-name="Grupo 122" transform="translate(-1567 -173)">
    <g id="OBJECTS" transform="translate(1557.741 172.002)">
      <g id="Grupo_121" data-name="Grupo 121" transform="translate(9.259 12.561)">
        <path id="Caminho_370" data-name="Caminho 370" d="M45.908,198.838c-17.832-9.76-31.7-27.079-35.591-46.966S13.4,109.9,29.1,97.054c10.2-8.366,23.189-12.475,35.224-17.906s24.217-12.989,29.5-25.1c3.669-8.292,3.6-17.906,7.559-26.125,6.384-13.356,23.042-17.1,37.719-14.677,21.061,3.522,27.372,20.988,45.425,27.3s38.233.44,49.607,12.842c13.87,15.117,1.541,26.271-.367,48.36a24.843,24.843,0,0,0,1.174,10.641c2.2,5.724,7.632,9.467,12.328,13.429,10.054,8.513,17.906,20.107,20.4,33.023s-6.384,32.362-15.484,39.921H45.908Z" transform="translate(-9.259 -12.561)" fill="#cef2ed"/>
      </g>
      <path id="Caminho_371" data-name="Caminho 371" d="M194.93,43.556l1.835-4.256,1.835,4.256,4.256,1.908L198.6,47.3l-1.835,4.256L194.93,47.3l-4.33-1.835Z" transform="translate(-48.266 -7.117)" fill="#fff"/>
      <path id="Caminho_372" data-name="Caminho 372" d="M152.855,68.855l1.321-3.156,1.394,3.156,3.156,1.321-3.156,1.394-1.394,3.156-1.321-3.156L149.7,70.176Z" transform="translate(-37.38 -14.144)" fill="#fff"/>
      <path id="Caminho_373" data-name="Caminho 373" d="M168.263,46.981A1.981,1.981,0,1,1,166.281,45,1.973,1.973,0,0,1,168.263,46.981Z" transform="translate(-41.266 -8.634)" fill="none" stroke="#fff" stroke-miterlimit="10" stroke-width="1"/>
      <path id="Caminho_374" data-name="Caminho 374" d="M288.711,109.555a3.155,3.155,0,1,1-3.155-3.156A3.228,3.228,0,0,1,288.711,109.555Z" transform="translate(-72.7 -24.976)" fill="none" stroke="#fff" stroke-miterlimit="10" stroke-width="1"/>
      <path id="Caminho_375" data-name="Caminho 375" d="M67.875,135.2l.954-2.2.954,2.2,2.2.954-2.2.954-.954,2.2-.954-2.2-2.275-.954Z" transform="translate(-14.996 -32.056)" fill="#fff"/>
      <path id="Caminho_376" data-name="Caminho 376" d="M40.492,189a3.6,3.6,0,1,1-3.6-3.6A3.6,3.6,0,0,1,40.492,189Z" transform="translate(-6.399 -46.003)" fill="none" stroke="#fff" stroke-miterlimit="10" stroke-width="1"/>
      <path id="Caminho_377" data-name="Caminho 377" d="M47.662,163.662l1.174-2.862,1.248,2.862,2.862,1.174-2.862,1.248-1.248,2.862-1.174-2.862L44.8,164.836Z" transform="translate(-9.46 -39.456)" fill="#fff"/>
    </g>
    <g id="satand-01" transform="translate(1620 173)">
      <path id="Caminho_172" data-name="Caminho 172" d="M132.067,62.673c8.648-.558,8.834-31.43,8.834-31.43l-1.3-1.86s-5.114-2.232-9.113,7.253c-2.139,5.021-6.323,10.6-6.788,17.2a11.82,11.82,0,0,0,1.86,6.7C126.767,62.673,128.255,62.952,132.067,62.673Z" transform="translate(-29.129 -8.045)" fill="#0aa1a7"/>
      <path id="Caminho_173" data-name="Caminho 173" d="M127.739,162.965s-1.86,2.046-4.37,4.463c-2.325,2.232-3.069,2.883-5.207,5.021-1.209,1.209-.186,2.325,2.139,2.232a43.618,43.618,0,0,0,9.485-2.046,47.727,47.727,0,0,0,7.16-3.72,4.846,4.846,0,0,0,2.139-2.7V162.5Z" transform="translate(-28.706 -17.394)" fill="#383842"/>
      <path id="Caminho_174" data-name="Caminho 174" d="M160.439,167.923s-.465,3.813-.744,8.741c-.279,4.835.372,9.113,1.86,9.671s5.672.465,8.09-6.23a26.046,26.046,0,0,0,.93-13.2Z" transform="translate(-31.649 -17.702)" fill="#383842"/>
      <path id="Caminho_175" data-name="Caminho 175" d="M162.9,95.089c.93-13.762-6.7-21.015-6.7-21.015.651-4.649-21.016,1.86-21.016,1.86s-4.649,25.014-6.6,38.218c-2.232,14.971-1.209,41.659-1.209,41.659s.279,3.255,5.858,3.255c4.277,0,7.811-3.534,7.811-3.534l.465-31.151,4.928-24.642s.837,22.968,4,29.57c5.765,12.089,5.765,33.476,5.765,33.476s7.253,2.6,12.182.093,4-5.207,4-5.207-1.209-16.552-7.625-30.872C164.206,115.826,162.532,101.412,162.9,95.089Z" transform="translate(-29.372 -11.077)" fill="#383842"/>
      <path id="Caminho_176" data-name="Caminho 176" d="M132.557,79.75a22.535,22.535,0,0,0,17.761,6.416,25.053,25.053,0,0,0,11.9-4.928c-.651-4.649-1.116-9.392-.744-12,1.209-9.485,3.069-24.735,2.7-27.246-.558-4.185-10.043-8.741-10.043-8.741s-6.7-5.207-13.669-2.418c0,0-7.439,6.044-8.369,14.506-.465,4.185.837,18.412.93,27.8C133.022,74.729,132.836,77.147,132.557,79.75Z" transform="translate(-29.712 -8.105)" fill="#8ed2d1"/>
      <path id="Caminho_177" data-name="Caminho 177" d="M141.281,36.1a17.446,17.446,0,0,0-2.6,5.858,15.7,15.7,0,0,0,1.581,10.415,77.6,77.6,0,0,1,5.765-5.951,43.08,43.08,0,0,0,5.207-5.393Z" transform="translate(-30.159 -8.532)" fill="#0aa1a7"/>
      <path id="Caminho_178" data-name="Caminho 178" d="M141.184,37.2a27.127,27.127,0,0,0-1.488,6.6,13.548,13.548,0,0,0,.744,5.858s6.044-5.672,8-7.625c1.116-1.116-2.046-2.046-4.37-3.069A11.854,11.854,0,0,1,141.184,37.2Z" transform="translate(-30.248 -8.609)" fill="#e2e2ed"/>
      <path id="Caminho_179" data-name="Caminho 179" d="M143.865,30.123l-.465,6.509a16.118,16.118,0,0,0,3.069,3.162c2.325-.744,7.811-5.858,7.811-5.858L152.42,23.8Z" transform="translate(-30.511 -7.669)" fill="#ffad97"/>
      <path id="Caminho_180" data-name="Caminho 180" d="M153.078,11.656a8.6,8.6,0,0,0-14.134,1.023c-4.835,7.16-.279,18.877,4,18.133,2.418-.372,7.718-2.511,10.043-6.323C155.588,20.21,155.03,14.073,153.078,11.656Z" transform="translate(-30.053 -6.59)" fill="#ffc5b3"/>
      <path id="Caminho_181" data-name="Caminho 181" d="M143.518,33.4l.558,5.3L139.8,40.467S139.24,34.795,143.518,33.4Z" transform="translate(-30.257 -8.342)" fill="#fff"/>
      <path id="Caminho_182" data-name="Caminho 182" d="M154.064,32.6a11.689,11.689,0,0,1-4.463,4.277,28.066,28.066,0,0,1-5.3,1.86l1.581,4.835s5.114-2.046,7.625-4.092C153.692,39.388,157.04,35.483,154.064,32.6Z" transform="translate(-30.575 -8.286)" fill="#fff"/>
      <path id="Caminho_183" data-name="Caminho 183" d="M156.563,34.032a60.545,60.545,0,0,0-7.718,7.16c-4.278,4.742-7.9,15.157-9.02,17.2-.837-2.418-2.046-14.227-1.116-18.784a23.155,23.155,0,0,1,3.069-7.346c-.186-.186-.372-.279-.558-.465a23.548,23.548,0,0,0-3.348,7.625c-1.3,5.765,1.3,19.714,1.488,20.086l.372.93.372-.93c0-.093,4-12,9.3-17.947a81.57,81.57,0,0,1,7.625-7.16C157.307,34.4,157.4,33.474,156.563,34.032Z" transform="translate(-30.098 -8.23)" fill="#383842"/>
      <path id="Caminho_184" data-name="Caminho 184" d="M137.358,57.2l-.558,8.183h0l5.3,3.069.558-8.276Z" transform="translate(-30.049 -10.011)" fill="#fff"/>
      <path id="Caminho_185" data-name="Caminho 185" d="M137.793,58l-.093.93,4.463,2.511.093-.93Z" transform="translate(-30.112 -10.067)" fill="#c63856"/>
      <path id="Caminho_186" data-name="Caminho 186" d="M139.472,60.8l-.372,5.486,2.7,1.488.372-5.393Z" transform="translate(-30.21 -10.263)" fill="#e2e2ed"/>
      <path id="Caminho_187" data-name="Caminho 187" d="M137.488,15.7c.93-1.3,1.488-3.162,4.742-2.046,7.16,2.418,6.881,8.369,6.881,8.369a4.425,4.425,0,0,0,1.209-.186c.465-1.674,1.116-2.046,1.953-1.3.93.744.744,3.813.744,3.813a11.145,11.145,0,0,0,3.441-7.9c0-3.069-2.325-9.206-7.9-9.857-5.672-.744-9.113,1.674-10.322,4.185C137.395,12.262,137.116,14.959,137.488,15.7Z" transform="translate(-30.086 -6.453)" fill="#383842"/>
      <path id="Caminho_188" data-name="Caminho 188" d="M149.846,58.1c2.232.93,3.255,1.3,5.3,2.139l2.046.837v6.137L147.8,64.7Z" transform="translate(-30.82 -10.074)" fill="#ffc5b3"/>
      <path id="Caminho_189" data-name="Caminho 189" d="M130.423,52.6A53.3,53.3,0,0,1,141.4,54.832a22.855,22.855,0,0,1,7.532,3.906s-.93,3.441-2.046,4.742-17.11,2.325-19.807.651C124.379,62.364,124.658,53.809,130.423,52.6Z" transform="translate(-29.251 -9.688)" fill="#0aa1a7"/>
      <path id="Caminho_190" data-name="Caminho 190" d="M147.436,57.1a3.6,3.6,0,0,0-2.139,3.348,12.488,12.488,0,0,0,.279,4.185l3.441-.279s.837-3.162,1.3-4.277a3.018,3.018,0,0,1,.744-1.395Z" transform="translate(-30.641 -10.004)" fill="#fff"/>
      <path id="Caminho_191" data-name="Caminho 191" d="M158.046,68.473s-15.157-10.88-19.435-13.3a32.28,32.28,0,0,0-6.323-2.976,6.552,6.552,0,0,0-1.488,4c-.093,2.511,2.139,5.951,5.114,9.02,3.069,3.069,11.252,9.113,15.343,9.671C154.7,75.354,158.046,68.473,158.046,68.473Z" transform="translate(-29.628 -9.66)" fill="#0aa1a7"/>
      <path id="Caminho_192" data-name="Caminho 192" d="M153.1,74.213c3.162.372,7.439-1.023,10.229-6.23a32.49,32.49,0,0,0,4.092-13.855c.558-8.276.465-12.646-3.534-14.227-2.232.558-5.765,4.092-7.439,10.973-1.023,4.37-5.3,17.3-5.3,17.3C150.027,70.958,149.748,73.841,153.1,74.213Z" transform="translate(-31.001 -8.798)" fill="#0aa1a7"/>
      <path id="Caminho_193" data-name="Caminho 193" d="M137.546,54.019a15.877,15.877,0,0,0-3.348.651,5.475,5.475,0,0,0-3.162,2.976s-1.674-2.325-.279-4.463a3.56,3.56,0,0,1,3.72-1.488A8.868,8.868,0,0,1,137.546,54.019Z" transform="translate(-29.586 -9.619)" fill="#fff"/>
      <path id="Caminho_194" data-name="Caminho 194" d="M66.914,56.1,22,81.858l106.658,61.931,44.914-26.037Z" transform="translate(-22 -9.934)" fill="#e2e2ed"/>
      <path id="Caminho_195" data-name="Caminho 195" d="M22,155.952l106.658,62.024V145.724L22,83.7Z" transform="translate(-22 -11.869)" fill="#383842"/>
      <path id="Caminho_196" data-name="Caminho 196" d="M181.586,194.652,136.3,220.689V148.437L181.586,122.4Z" transform="translate(-30.014 -14.582)" fill="#2b2b33"/>
      <path id="Caminho_197" data-name="Caminho 197" d="M22,160.152l106.658,62.024V205.531L22,143.6Z" transform="translate(-22 -16.068)" fill="#8ed2d1"/>
      <path id="Caminho_198" data-name="Caminho 198" d="M181.586,198.824,136.3,224.861V207.937L181.586,181.9Z" transform="translate(-30.014 -18.754)" fill="#8ed2d1"/>
      <path id="Caminho_199" data-name="Caminho 199" d="M22,89l106.658,61.931v-5.207L22,83.7Z" transform="translate(-22 -11.869)" fill="#cacadd"/>
      <path id="Caminho_200" data-name="Caminho 200" d="M181.586,127.7,136.3,153.644v-5.207L181.586,122.4Z" transform="translate(-30.014 -14.582)" fill="#b1b1c9"/>
      <g id="Grupo_65" data-name="Grupo 65" transform="translate(16.273 40.959)">
        <g id="Grupo_60" data-name="Grupo 60">
          <path id="Caminho_201" data-name="Caminho 201" d="M55.866,96.212,39.5,86.727,64.142,72.5l16.273,9.485Z" transform="translate(-39.5 -52.042)" fill="#fff"/>
          <path id="Caminho_202" data-name="Caminho 202" d="M39.5,87.47V83.1l16.366,9.485v4.37Z" transform="translate(-39.5 -52.786)" fill="#cacadd"/>
          <path id="Caminho_203" data-name="Caminho 203" d="M81.649,81.087,57.1,95.315v-4.37l1.581-.93V92.8L80.068,80.344V60.537l1.581-.837Z" transform="translate(-40.734 -51.145)" fill="#b3b3c6"/>
          <path id="Caminho_204" data-name="Caminho 204" d="M39.5,83.03l16.366,9.485,1.581-.93L40.988,82.1Z" transform="translate(-39.5 -52.716)" fill="#e2e2ed"/>
          <path id="Caminho_205" data-name="Caminho 205" d="M66,51.43l14.692,8.648,1.674-.93L67.488,50.5Z" transform="translate(-41.358 -50.5)" fill="#e2e2ed"/>
          <path id="Caminho_206" data-name="Caminho 206" d="M80.692,59.962,66,51.5V71.028l14.692,8.741Z" transform="translate(-41.358 -50.57)" fill="#cacadd"/>
        </g>
        <g id="Grupo_61" data-name="Grupo 61" transform="translate(18.877 2.79)">
          <path id="Caminho_207" data-name="Caminho 207" d="M64.914,53.5,59.8,74.051l14.227,8.09L79.049,61.59Z" transform="translate(-59.8 -53.5)" fill="#3ec69c"/>
          <path id="Caminho_208" data-name="Caminho 208" d="M66.109,56.2,64.9,60.942l11.624,6.509,1.209-4.742Z" transform="translate(-60.158 -53.689)" fill="#fff"/>
          <path id="Caminho_209" data-name="Caminho 209" d="M64.29,62.9,61.5,73.966l11.624,6.6L75.913,69.5Z" transform="translate(-59.919 -54.159)" fill="#31af85"/>
          <path id="Caminho_210" data-name="Caminho 210" d="M80.121,62.2h.93L76.03,82.751H75.1Z" transform="translate(-60.873 -54.11)" fill="#31af85"/>
          <path id="Caminho_211" data-name="Caminho 211" d="M65.3,53.5l14.134,8.09h.93L66.137,53.5Z" transform="translate(-60.186 -53.5)" fill="#57ddb0"/>
        </g>
        <g id="Grupo_62" data-name="Grupo 62" transform="translate(16.366 4.463)">
          <path id="Caminho_212" data-name="Caminho 212" d="M62.121,55.3,57.1,75.851l14.227,8.183L76.349,63.39Z" transform="translate(-57.1 -55.3)" fill="#6969c4"/>
          <path id="Caminho_213" data-name="Caminho 213" d="M63.409,58,62.2,62.742l11.531,6.509,1.3-4.742Z" transform="translate(-57.458 -55.489)" fill="#fff"/>
          <path id="Caminho_214" data-name="Caminho 214" d="M61.5,64.8,58.8,75.773l11.624,6.6,2.7-11.066Z" transform="translate(-57.219 -55.966)" fill="#5656af"/>
          <path id="Caminho_215" data-name="Caminho 215" d="M77.421,64h.93L73.33,84.644H72.4Z" transform="translate(-58.173 -55.91)" fill="#5656af"/>
          <path id="Caminho_216" data-name="Caminho 216" d="M62.5,55.3l14.227,8.09h.93L63.43,55.3Z" transform="translate(-57.479 -55.3)" fill="#8383dd"/>
        </g>
        <g id="Grupo_63" data-name="Grupo 63" transform="translate(13.39 9.671)">
          <path id="Caminho_217" data-name="Caminho 217" d="M58.921,60.9,53.9,81.451l10.043,5.858,5.114-20.551Z" transform="translate(-53.9 -60.9)" fill="#de4e65"/>
          <path id="Caminho_218" data-name="Caminho 218" d="M60.172,63.4,59.8,64.888l7.811,4.463.465-1.581Z" transform="translate(-54.314 -61.075)" fill="#fff"/>
          <path id="Caminho_219" data-name="Caminho 219" d="M59.272,66.2,58.9,67.688l7.9,4.463.372-1.488Z" transform="translate(-54.251 -61.272)" fill="#fff"/>
          <path id="Caminho_220" data-name="Caminho 220" d="M58.49,70,55.7,81.066l7.346,4.184,2.79-11.066Z" transform="translate(-54.026 -61.538)" fill="#c63856"/>
          <path id="Caminho_221" data-name="Caminho 221" d="M69.814,67.2h.93L65.723,87.751H64.7Z" transform="translate(-54.657 -61.342)" fill="#c63856"/>
          <path id="Caminho_222" data-name="Caminho 222" d="M59.3,60.9l10.136,5.858h.93L60.23,60.9Z" transform="translate(-54.279 -60.9)" fill="#f97594"/>
        </g>
        <g id="Grupo_64" data-name="Grupo 64" transform="translate(8.276 13.111)">
          <path id="Caminho_223" data-name="Caminho 223" d="M53.514,64.6,48.4,85.151l10.136,5.858,5.021-20.551Z" transform="translate(-48.4 -64.6)" fill="#3ec69c"/>
          <path id="Caminho_224" data-name="Caminho 224" d="M54.765,67.1,54.3,68.588l7.9,4.463.372-1.488Z" transform="translate(-48.814 -64.775)" fill="#fff"/>
          <path id="Caminho_225" data-name="Caminho 225" d="M53.865,69.9,53.4,71.388l7.9,4.463.372-1.488Z" transform="translate(-48.751 -64.972)" fill="#fff"/>
          <path id="Caminho_226" data-name="Caminho 226" d="M53,73.8,50.3,84.773l7.346,4.185,2.79-11.066Z" transform="translate(-48.533 -65.245)" fill="#31af85"/>
          <path id="Caminho_227" data-name="Caminho 227" d="M64.321,70.9h.93L60.23,91.451H59.3Z" transform="translate(-49.164 -65.042)" fill="#31af85"/>
          <path id="Caminho_228" data-name="Caminho 228" d="M53.9,64.6l10.043,5.858h.93L54.737,64.6Z" transform="translate(-48.786 -64.6)" fill="#57ddb0"/>
        </g>
      </g>
      <g id="Grupo_66" data-name="Grupo 66" transform="translate(58.397 85.78)">
        <path id="Caminho_229" data-name="Caminho 229" d="M84.8,109.673l13.948,8L118,106.7l-13.948-8Z" transform="translate(-84.8 -98.7)" fill="#fff"/>
        <path id="Caminho_230" data-name="Caminho 230" d="M88,109.688l11.159,6.6,12-6.881L100,102.9Z" transform="translate(-85.024 -98.995)" fill="#e2e2ed"/>
        <path id="Caminho_231" data-name="Caminho 231" d="M102.8,101.588l11.252,6.6,2.6-1.488L105.4,100.1Z" transform="translate(-86.062 -98.798)" fill="#e2e2ed"/>
      </g>
      <g id="Grupo_67" data-name="Grupo 67" transform="translate(61.466 75.551)">
        <path id="Caminho_232" data-name="Caminho 232" d="M88.1,98.673l13.855,8L121.2,95.7l-13.855-8Z" transform="translate(-88.1 -87.7)" fill="#fff"/>
        <path id="Caminho_233" data-name="Caminho 233" d="M107.3,90.144l11.252,6.6,1.3-.744L108.6,89.4Z" transform="translate(-89.446 -87.819)" fill="#e2e2ed"/>
        <path id="Caminho_234" data-name="Caminho 234" d="M104.8,91.544l11.252,6.6,1.3-.744L106.1,90.8Z" transform="translate(-89.271 -87.917)" fill="#e2e2ed"/>
        <path id="Caminho_235" data-name="Caminho 235" d="M102.2,93.044l11.159,6.6,1.3-.744L103.5,92.3Z" transform="translate(-89.089 -88.023)" fill="#e2e2ed"/>
        <path id="Caminho_236" data-name="Caminho 236" d="M99.7,94.451l11.159,6.6,1.3-.744L101,93.8Z" transform="translate(-88.913 -88.128)" fill="#e2e2ed"/>
        <path id="Caminho_237" data-name="Caminho 237" d="M91.5,98.927l11.159,6.6,6.7-3.72L98.1,95.3Z" transform="translate(-88.338 -88.233)" fill="#e2e2ed"/>
      </g>
    </g>
  </g>
</svg>
