<svg xmlns="http://www.w3.org/2000/svg" width="222.164" height="86.959" viewBox="0 0 222.164 86.959">
  <g id="Grupo_69" data-name="Grupo 69" transform="translate(-1324.415 -479)">
    <g id="Elipse_5" data-name="Elipse 5" transform="translate(1472 479)" fill="#fff" stroke="#0aa1a7" stroke-width="4">
      <circle cx="37.29" cy="37.29" r="37.29" stroke="none"/>
      <circle cx="37.29" cy="37.29" r="35.29" fill="none"/>
    </g>
    <path id="Caminho_78" data-name="Caminho 78" d="M6591.687,5007.037H6734.4V4967.5" transform="translate(8066.44 5522.795) rotate(180)" fill="none" stroke="#0aa1a7" stroke-width="2"/>
    <circle id="Elipse_15" data-name="Elipse 15" cx="7.736" cy="7.736" r="7.736" transform="translate(1339.888 565.959) rotate(180)" fill="#0aa1a7"/>
    <g id="business-and-finance" transform="translate(1493 500)">
      <g id="Grupo_41" data-name="Grupo 41" transform="translate(0 0)">
        <g id="Grupo_40" data-name="Grupo 40" transform="translate(0 0)">
          <path id="Caminho_143" data-name="Caminho 143" d="M192,89.241c0,2.505,4.983,3.817,9.906,3.817s9.906-1.311,9.906-3.817C211.812,84.23,192,84.23,192,89.241Z" transform="translate(-178.284 -79.376)" fill="#0aa1a7"/>
          <path id="Caminho_144" data-name="Caminho 144" d="M211.444,188.409a.764.764,0,0,0-.748-.023,23.973,23.973,0,0,1-17.581,0,.762.762,0,0,0-1.115.676v.23c0,2.505,4.983,3.817,9.906,3.817s9.906-1.311,9.906-3.817v-.23A.763.763,0,0,0,211.444,188.409Z" transform="translate(-178.284 -174.848)" fill="#0aa1a7"/>
          <path id="Caminho_145" data-name="Caminho 145" d="M64,302.946c0,2.505,4.983,3.817,9.906,3.817s9.906-1.311,9.906-3.817C83.812,297.935,64,297.935,64,302.946Z" transform="translate(-59.428 -277.815)" fill="#0aa1a7"/>
          <path id="Caminho_146" data-name="Caminho 146" d="M83.444,402.118a.766.766,0,0,0-.748-.023,19.788,19.788,0,0,1-8.79,1.67,19.788,19.788,0,0,1-8.79-1.67.762.762,0,0,0-1.115.676V403c0,2.505,4.983,3.817,9.906,3.817s9.906-1.311,9.906-3.817v-.23A.763.763,0,0,0,83.444,402.118Z" transform="translate(-59.428 -373.291)" fill="#0aa1a7"/>
          <path id="Caminho_147" data-name="Caminho 147" d="M9.906,7.575A26.785,26.785,0,0,0,12.965,7.4a.762.762,0,0,0,.435-.2,11.062,11.062,0,0,1,5.7-2.321.762.762,0,0,0,.592-.5,1.83,1.83,0,0,0,.117-.624C19.812-1.253,0-1.253,0,3.758,0,6.263,4.983,7.575,9.906,7.575Z" transform="translate(0 0)" fill="#0aa1a7"/>
          <path id="Caminho_148" data-name="Caminho 148" d="M9.906,107.626c.631,0,1.246-.022,1.842-.061a.764.764,0,0,0,.664-1.028,3.374,3.374,0,0,1-.217-1.242.763.763,0,0,0-.237-.552.731.731,0,0,0-.562-.21c-.5.024-1,.04-1.491.04a19.788,19.788,0,0,1-8.79-1.67A.762.762,0,0,0,0,103.579v.23C0,106.315,4.983,107.626,9.906,107.626Z" transform="translate(0 -95.471)" fill="#0aa1a7"/>
          <path id="Caminho_149" data-name="Caminho 149" d="M9.906,171.738c.631,0,1.246-.022,1.842-.061a.764.764,0,0,0,.664-1.028,3.454,3.454,0,0,1-.22-1.242.763.763,0,0,0-.237-.552.746.746,0,0,0-.562-.21c-.5.024-.993.04-1.488.04a19.788,19.788,0,0,1-8.79-1.67A.762.762,0,0,0,0,167.691v.23C0,170.426,4.983,171.738,9.906,171.738Z" transform="translate(0 -155.003)" fill="#0aa1a7"/>
          <path id="Caminho_150" data-name="Caminho 150" d="M366.9,316.622a.758.758,0,0,0-.748-.023,16.488,16.488,0,0,1-5.833,1.518.88.88,0,0,0-.671.915,3.417,3.417,0,0,1-.19,1.129.763.763,0,0,0,.72,1.012.753.753,0,0,0,.082,0c4.388-.474,7.008-1.843,7.008-3.663v-.23A.763.763,0,0,0,366.9,316.622Z" transform="translate(-333.743 -293.901)" fill="#0aa1a7"/>
          <path id="Caminho_151" data-name="Caminho 151" d="M192.763,254.157l.505.009h.013a.763.763,0,0,0,.315-1.458l-.163-.073c-.109-.048-.218-.1-.319-.148a.762.762,0,0,0-1.114.677v.23A.762.762,0,0,0,192.763,254.157Z" transform="translate(-178.285 -234.37)" fill="#0aa1a7"/>
          <path id="Caminho_152" data-name="Caminho 152" d="M323.637,252.521a.764.764,0,0,0-.748-.023,19.788,19.788,0,0,1-8.79,1.67l-.5-.01a.783.783,0,0,0-.753.6.762.762,0,0,0,.428.861,6.78,6.78,0,0,1,2,1.327.762.762,0,0,0,.539.223l.048,0c3.756-.238,8.144-1.366,8.144-3.76v-.23A.763.763,0,0,0,323.637,252.521Z" transform="translate(-290.477 -234.38)" fill="#0aa1a7"/>
          <path id="Caminho_153" data-name="Caminho 153" d="M6.373,235.614a.759.759,0,0,0,.281-.054,18.335,18.335,0,0,1,4.867-1.088.923.923,0,0,0,.672-.953.764.764,0,0,0-.8-.763c-.5.024-.993.04-1.488.04a19.788,19.788,0,0,1-8.79-1.67A.762.762,0,0,0,0,231.8v.23c0,1.687,2.343,3.023,6.267,3.572A.722.722,0,0,0,6.373,235.614Z" transform="translate(0 -214.536)" fill="#0aa1a7"/>
        </g>
      </g>
    </g>
  </g>
</svg>
