<svg xmlns="http://www.w3.org/2000/svg" width="204.998" height="102.15" viewBox="0 0 204.998 102.15">
  <g id="Grupo_68" data-name="Grupo 68" transform="translate(-997.891 -538.808)">
    <g id="Elipse_5" data-name="Elipse 5" transform="translate(997.891 538.808)" fill="#fff" stroke="#0aa1a7" stroke-width="4">
      <circle cx="37.29" cy="37.29" r="37.29" stroke="none"/>
      <circle cx="37.29" cy="37.29" r="35.29" fill="none"/>
    </g>
    <path id="Caminho_78" data-name="Caminho 78" d="M6715.01,5019.128H6591.688V4967.5" transform="translate(7787.01 5596.795) rotate(180)" fill="none" stroke="#0aa1a7" stroke-width="2"/>
    <circle id="Elipse_13" data-name="Elipse 13" cx="7.736" cy="7.736" r="7.736" transform="translate(1202.888 640.959) rotate(180)" fill="#0aa1a7"/>
    <g id="electronics" transform="translate(1017.988 556.959)">
      <path id="Caminho_129" data-name="Caminho 129" d="M160.012,376h9.162v.654h-9.162Zm0,0" transform="translate(-146.912 -345.243)" fill="#0aa1a7"/>
      <path id="Caminho_130" data-name="Caminho 130" d="M171.086,424h-8.738a4.484,4.484,0,0,0,.252.654h8.228a4.9,4.9,0,0,0,.258-.654Zm0,0" transform="translate(-149.057 -389.317)" fill="#0aa1a7"/>
      <path id="Caminho_131" data-name="Caminho 131" d="M180.38,449.3a4.45,4.45,0,0,0,2.848-1.3h-6.354c.024.023.044.048.065.07a4.536,4.536,0,0,0,3.44,1.229Zm0,0" transform="translate(-162.395 -411.353)" fill="#0aa1a7"/>
      <path id="Caminho_132" data-name="Caminho 132" d="M169.174,400h-9.162v.654h9.153c0-.059.009-.654.009-.654Zm0,0" transform="translate(-146.912 -367.28)" fill="#0aa1a7"/>
      <path id="Caminho_133" data-name="Caminho 133" d="M103.059,102.4a4.609,4.609,0,0,1,1.827-3.655,10.471,10.471,0,0,0-5.177-18.681,11.145,11.145,0,0,0-1.243-.071,10.35,10.35,0,0,0-6.958,2.658,10.471,10.471,0,0,0,.549,16.083A4.638,4.638,0,0,1,93.9,102.4v.5h9.162ZM99.488,82.667a.73.73,0,0,1-.075,0,8.161,8.161,0,0,0-.935-.054.654.654,0,0,1,0-1.309,9.587,9.587,0,0,1,1.083.066.654.654,0,0,1-.073,1.3Zm1.64-.322a.654.654,0,0,1,.855-.353,9.146,9.146,0,0,1,5.587,7.323.655.655,0,0,1-1.3.156,7.833,7.833,0,0,0-4.789-6.272.654.654,0,0,1-.353-.851Zm0,0" transform="translate(-80.798 -73.448)" fill="#0aa1a7"/>
      <path id="Caminho_134" data-name="Caminho 134" d="M208.666,3.926a.654.654,0,0,0,.654-.654V.654a.654.654,0,1,0-1.309,0V3.272A.654.654,0,0,0,208.666,3.926Zm0,0" transform="translate(-190.986)" fill="#0aa1a7"/>
      <path id="Caminho_135" data-name="Caminho 135" d="M105.431,31.152a.654.654,0,1,0,1.133-.654l-1.309-2.267a.654.654,0,0,0-1.133.654Zm0,0" transform="translate(-95.515 -25.625)" fill="#0aa1a7"/>
      <path id="Caminho_136" data-name="Caminho 136" d="M31.164,105.419,28.9,104.11a.655.655,0,0,0-.654,1.134l2.267,1.309a.655.655,0,0,0,.654-1.134Zm0,0" transform="translate(-25.625 -95.515)" fill="#0aa1a7"/>
      <path id="Caminho_137" data-name="Caminho 137" d="M3.938,208.654A.654.654,0,0,0,3.284,208H.666a.654.654,0,1,0,0,1.309H3.284A.654.654,0,0,0,3.938,208.654Zm0,0" transform="translate(0 -190.985)" fill="#0aa1a7"/>
      <path id="Caminho_138" data-name="Caminho 138" d="M30.426,296.063l-2.267,1.309a.655.655,0,1,0,.654,1.134L31.08,297.2a.655.655,0,1,0-.654-1.134Zm0,0" transform="translate(-25.541 -271.762)" fill="#0aa1a7"/>
      <path id="Caminho_139" data-name="Caminho 139" d="M363.639,297.371l-2.267-1.309a.655.655,0,1,0-.654,1.134l2.267,1.309a.655.655,0,0,0,.654-1.134Zm0,0" transform="translate(-330.897 -271.762)" fill="#0aa1a7"/>
      <path id="Caminho_140" data-name="Caminho 140" d="M387.284,208h-2.618a.654.654,0,0,0,0,1.309h2.618a.654.654,0,1,0,0-1.309Zm0,0" transform="translate(-352.589 -190.985)" fill="#0aa1a7"/>
      <path id="Caminho_141" data-name="Caminho 141" d="M361.1,106.64a.656.656,0,0,0,.327-.088l2.267-1.309a.655.655,0,0,0-.654-1.134l-2.267,1.309a.655.655,0,0,0,.327,1.221Zm0,0" transform="translate(-330.946 -95.516)" fill="#0aa1a7"/>
      <path id="Caminho_142" data-name="Caminho 142" d="M296.337,31.392a.654.654,0,0,0,.894-.24l1.309-2.267a.654.654,0,0,0-1.133-.654L296.1,30.5a.655.655,0,0,0,.24.894Zm0,0" transform="translate(-271.786 -25.625)" fill="#0aa1a7"/>
    </g>
  </g>
</svg>
