<svg xmlns="http://www.w3.org/2000/svg" width="159.164" height="88.094" viewBox="0 0 159.164 88.094">
  <g id="Grupo_70" data-name="Grupo 70" transform="translate(-1457.415 -732.486)">
    <path id="Caminho_78" data-name="Caminho 78" d="M6734.4,5007.037H6591.688V4967.5" transform="translate(-5126.516 -4224.879)" fill="none" stroke="#0aa1a7" stroke-width="2"/>
    <g id="Elipse_5" data-name="Elipse 5" transform="translate(1542 746)" fill="#fff" stroke="#0aa1a7" stroke-width="4">
      <circle cx="37.29" cy="37.29" r="37.29" stroke="none"/>
      <circle cx="37.29" cy="37.29" r="35.29" fill="none"/>
    </g>
    <circle id="Elipse_16" data-name="Elipse 16" cx="7.736" cy="7.736" r="7.736" transform="translate(1472.888 747.959) rotate(180)" fill="#0aa1a7"/>
    <g id="thinking" transform="translate(1560.999 764.999)">
      <path id="Caminho_154" data-name="Caminho 154" d="M73.261,285.029a1.056,1.056,0,0,0,.2,1.219l.258.258c.745-.883,1.614-1.841,2.667-2.894.074-.074.151-.11.226-.179l-1.659-1.659c-.965,1.745-1.527,2.937-1.688,3.256Zm0,0" transform="translate(-68.005 -261.96)" fill="#0aa1a7"/>
      <path id="Caminho_155" data-name="Caminho 155" d="M165.78,389.788c-1.056,1.056-2.012,1.926-2.89,2.672l.349.349a1.054,1.054,0,0,0,1.228.192c.546-.282,1.405-.686,3.229-1.7l-1.737-1.737C165.891,389.637,165.855,389.713,165.78,389.788Zm0,0" transform="translate(-151.436 -362.17)" fill="#0aa1a7"/>
      <path id="Caminho_156" data-name="Caminho 156" d="M69.179,311.628c-.762-.762-2.906-.079-3.912.928a28.047,28.047,0,0,0-5.573,7.167,1.055,1.055,0,0,0,1.41,1.408,28.252,28.252,0,0,0,7.146-5.592c1.107-1.108,1.653-3.187.93-3.91Zm0,0" transform="translate(-55.398 -289.412)" fill="#0aa1a7"/>
      <path id="Caminho_157" data-name="Caminho 157" d="M3.293,166.31.31,169.293a1.055,1.055,0,0,0,1.019,1.765,8.667,8.667,0,0,1,3.986-.37,56.6,56.6,0,0,1,4.366-6.661c-.895-.573-3.851-.254-6.388,2.283Zm0,0" transform="translate(0 -152.266)" fill="#0aa1a7"/>
      <path id="Caminho_158" data-name="Caminho 158" d="M246.221,385.907a1.053,1.053,0,0,0,1.22-.2l2.983-2.983c2.31-2.31,2.716-5.291,2.192-6.236a60.194,60.194,0,0,1-6.666,4.333,12.924,12.924,0,0,1-.3,3.986,1.052,1.052,0,0,0,.569,1.1Zm0,0" transform="translate(-228.368 -350.019)" fill="#0aa1a7"/>
      <path id="Caminho_159" data-name="Caminho 159" d="M285.569,138.234a3.164,3.164,0,1,0,4.475,0A3.168,3.168,0,0,0,285.569,138.234Zm0,0" transform="translate(-264.629 -127.653)" fill="#0aa1a7"/>
      <path id="Caminho_160" data-name="Caminho 160" d="M396.446,1.03a1.053,1.053,0,0,0-.973-.973,20.85,20.85,0,0,0-7.7.9A8.855,8.855,0,0,0,390.4,6.106a8.827,8.827,0,0,0,5.253,2.619,21.811,21.811,0,0,0,.8-7.7Zm0,0" transform="translate(-360.507 0)" fill="#0aa1a7"/>
      <path id="Caminho_161" data-name="Caminho 161" d="M134.7,29.906A11.08,11.08,0,0,1,131.526,24c-6.333,2.6-12.4,8.27-17.187,16.238l2.38,2.38c1.626-.66,3.6-.835,4.853.417s1.076,3.227.416,4.852l2.458,2.458c6.131-3.695,13.269-9.516,16.3-17.261a11.027,11.027,0,0,1-6.054-3.174ZM133.2,38.855a5.273,5.273,0,1,1,0-7.458A5.28,5.28,0,0,1,133.2,38.855Zm0,0" transform="translate(-106.299 -22.308)" fill="#0aa1a7"/>
    </g>
  </g>
</svg>
